<svg width="1500" height="500" viewBox="0 0 1500 500" fill="none" xmlns="http://www.w3.org/2000/svg">
<g clip-path="url(#clip0)">
<rect width="1500" height="500" fill="white"/>
<g clip-path="url(#clip1)">
<g filter="url(#filter0_d)">
<path d="M1510.66 -299H2.54455C-9.35417 -299 -19 -288.889 -19 -276.416V834.725C-19 847.198 -9.35417 857.309 2.54455 857.309H1510.66C1522.56 857.309 1532.21 847.198 1532.21 834.725V-276.416C1532.21 -288.889 1522.56 -299 1510.66 -299Z" fill="#0D1117"/>
<g filter="url(#filter1_d)">
<path d="M810.613 376.477L823.904 413.071L787.026 406.839L810.613 376.477Z" fill="#ED33B9"/>
</g>
<g filter="url(#filter2_d)">
<path d="M986.818 25.6316L1013.32 40.553L987.745 57.1501L986.818 25.6316Z" fill="#ED33B9"/>
</g>
<g filter="url(#filter3_d)">
<path d="M1185.23 142.567L1138.46 156.436L1150.4 107.041L1185.23 142.567Z" fill="#FFF129"/>
</g>
<g filter="url(#filter4_d)">
<path d="M458.066 429.213L447.645 460.616L426.912 435.453L458.066 429.213Z" fill="#ED33B9"/>
</g>
<g filter="url(#filter5_d)">
<path d="M1447.93 519.402L1416.18 529.105L1424.03 495.427L1447.93 519.402Z" fill="#FFF129"/>
</g>
<g filter="url(#filter6_d)">
<path d="M405.824 256.986L426.55 262.808L411.378 278.712L405.824 256.986Z" fill="#51E5FF"/>
</g>
<g filter="url(#filter7_d)">
<path d="M308.047 151.456L343.968 173.985L307.395 195.328L308.047 151.456Z" fill="#51E5FF"/>
</g>
<g filter="url(#filter8_d)">
<path d="M838.742 110.651L875.661 115.969L852.807 146.826L838.742 110.651Z" fill="#51E5FF"/>
</g>
<g filter="url(#filter9_d)">
<path d="M1327.1 412.191L1345.59 452.866L1302.74 449.318L1327.1 412.191Z" fill="#51E5FF"/>
</g>
<g filter="url(#filter10_d)">
<path d="M385.668 42.3759C392.009 42.3759 397.149 36.988 397.149 30.3416C397.149 23.6951 392.009 18.3071 385.668 18.3071C379.328 18.3071 374.188 23.6951 374.188 30.3416C374.188 36.988 379.328 42.3759 385.668 42.3759Z" fill="#FFF129"/>
</g>
<g filter="url(#filter11_d)">
<path d="M589.264 128.196C593.82 128.196 597.513 124.325 597.513 119.549C597.513 114.774 593.82 110.902 589.264 110.902C584.708 110.902 581.015 114.774 581.015 119.549C581.015 124.325 584.708 128.196 589.264 128.196Z" fill="#23CE6B"/>
</g>
<g filter="url(#filter12_d)">
<path d="M1472.96 110.903C1478.91 110.903 1483.73 105.847 1483.73 99.6105C1483.73 93.3741 1478.91 88.3185 1472.96 88.3185C1467.01 88.3185 1462.19 93.3741 1462.19 99.6105C1462.19 105.847 1467.01 110.903 1472.96 110.903Z" fill="#23CE6B"/>
</g>
<g filter="url(#filter13_d)">
<path d="M162.513 45.4085C166.38 45.4085 169.515 42.1224 169.515 38.0687C169.515 34.015 166.38 30.7288 162.513 30.7288C158.646 30.7288 155.511 34.015 155.511 38.0687C155.511 42.1224 158.646 45.4085 162.513 45.4085Z" fill="#51E5FF"/>
</g>
<g filter="url(#filter14_d)">
<path d="M1155.72 515.159C1160.77 515.159 1164.87 510.862 1164.87 505.561C1164.87 500.26 1160.77 495.963 1155.72 495.963C1150.66 495.963 1146.56 500.26 1146.56 505.561C1146.56 510.862 1150.66 515.159 1155.72 515.159Z" fill="#51E5FF"/>
</g>
<g filter="url(#filter15_d)">
<path d="M966.125 483.541C969.397 483.541 972.049 480.761 972.049 477.331C972.049 473.901 969.397 471.12 966.125 471.12C962.853 471.12 960.2 473.901 960.2 477.331C960.2 480.761 962.853 483.541 966.125 483.541Z" fill="#FFF129"/>
</g>
<g filter="url(#filter16_d)">
<path d="M1317.3 220.436C1320.57 220.436 1323.23 217.655 1323.23 214.225C1323.23 210.795 1320.57 208.015 1317.3 208.015C1314.03 208.015 1311.38 210.795 1311.38 214.225C1311.38 217.655 1314.03 220.436 1317.3 220.436Z" fill="#51E5FF"/>
</g>
<g filter="url(#filter17_d)">
<path d="M345.642 390.946C348.914 390.946 351.566 388.166 351.566 384.736C351.566 381.306 348.914 378.525 345.642 378.525C342.369 378.525 339.717 381.306 339.717 384.736C339.717 388.166 342.369 390.946 345.642 390.946Z" fill="#23CE6B"/>
</g>
<g filter="url(#filter18_d)">
<path d="M1172.41 349.166C1175.98 349.166 1178.88 346.132 1178.88 342.39C1178.88 338.648 1175.98 335.615 1172.41 335.615C1168.84 335.615 1165.95 338.648 1165.95 342.39C1165.95 346.132 1168.84 349.166 1172.41 349.166Z" fill="#ED33B9"/>
</g>
<g filter="url(#filter19_d)">
<path d="M88.7228 214.79C94.6722 214.79 99.4951 209.734 99.4951 203.498C99.4951 197.261 94.6722 192.206 88.7228 192.206C82.7734 192.206 77.9505 197.261 77.9505 203.498C77.9505 209.734 82.7734 214.79 88.7228 214.79Z" fill="#ED33B9"/>
</g>
<g filter="url(#filter20_d)">
<path fill-rule="evenodd" clip-rule="evenodd" d="M1378.3 -24.171L1371.68 1.73529L1362.42 -0.867529L1369.03 -26.7738L1378.3 -24.171ZM1361.14 -67.1679L1354.53 -41.2616L1380.78 -33.8856L1378.3 -24.171L1342.78 -34.1498L1345.26 -43.8644L1351.88 -69.7707L1361.14 -67.1679Z" fill="white"/>
</g>
<g filter="url(#filter21_d)">
<path fill-rule="evenodd" clip-rule="evenodd" d="M165.895 424.706L143.738 438.117L138.941 429.407L161.098 415.997L165.895 424.706ZM182.77 381.59L160.613 394.999L174.205 419.678L165.895 424.706L147.506 391.318L155.816 386.289L177.973 372.879L182.77 381.59Z" fill="white"/>
</g>
<g filter="url(#filter22_d)">
<path fill-rule="evenodd" clip-rule="evenodd" d="M989.436 314.578L965.453 323.907L962.115 314.477L986.107 305.149L989.436 314.578ZM1012.96 275.034L988.984 284.363L998.431 311.08L989.436 314.578L976.647 278.432L985.644 274.934L1009.63 265.604L1012.96 275.034Z" fill="white"/>
</g>
<g filter="url(#filter23_d)">
<path fill-rule="evenodd" clip-rule="evenodd" d="M1438.73 317.47L1425.56 294.47L1433.79 289.297L1446.96 312.296L1438.73 317.47ZM1480.13 334.435L1466.97 311.435L1443.66 326.095L1438.73 317.47L1470.27 297.638L1475.2 306.262L1488.36 329.261L1480.13 334.435Z" fill="white"/>
</g>
</g>
<path d="M643.436 466.167V477.473C643.436 480.043 642.738 481.965 641.343 483.241C639.948 484.534 637.94 485.181 635.32 485.181C633.959 485.181 632.683 485.028 631.492 484.721C630.301 484.415 629.288 483.964 628.455 483.369L630.216 479.974C630.777 480.434 631.483 480.791 632.334 481.046C633.202 481.319 634.052 481.455 634.886 481.455C636.162 481.455 637.098 481.174 637.693 480.613C638.289 480.051 638.587 479.217 638.587 478.111V477.652C637.651 478.741 636.281 479.285 634.478 479.285C633.253 479.285 632.121 479.013 631.083 478.469C630.046 477.907 629.22 477.125 628.608 476.121C627.995 475.1 627.689 473.926 627.689 472.599C627.689 471.289 627.995 470.132 628.608 469.128C629.22 468.107 630.046 467.324 631.083 466.78C632.121 466.218 633.253 465.938 634.478 465.938C636.451 465.938 637.898 466.576 638.816 467.852V466.167H643.436ZM635.626 475.432C636.494 475.432 637.209 475.168 637.77 474.641C638.348 474.113 638.638 473.433 638.638 472.599C638.638 471.765 638.357 471.093 637.796 470.583C637.234 470.055 636.511 469.791 635.626 469.791C634.741 469.791 634.01 470.055 633.431 470.583C632.87 471.093 632.589 471.765 632.589 472.599C632.589 473.433 632.878 474.113 633.457 474.641C634.035 475.168 634.758 475.432 635.626 475.432ZM646.551 466.167H651.4V480H646.551V466.167ZM648.976 464.636C648.091 464.636 647.377 464.389 646.832 463.896C646.288 463.403 646.015 462.79 646.015 462.059C646.015 461.327 646.288 460.714 646.832 460.221C647.377 459.728 648.091 459.481 648.976 459.481C649.861 459.481 650.575 459.719 651.12 460.195C651.664 460.655 651.936 461.25 651.936 461.982C651.936 462.748 651.664 463.386 651.12 463.896C650.575 464.389 649.861 464.636 648.976 464.636ZM664.097 479.439C663.688 479.694 663.186 479.889 662.591 480.026C662.012 480.162 661.391 480.23 660.728 480.23C658.924 480.23 657.538 479.787 656.568 478.903C655.598 478.018 655.113 476.699 655.113 474.947V470.302H653.097V466.678H655.113V463.079H659.962V466.678H663.127V470.302H659.962V474.896C659.962 475.389 660.09 475.78 660.345 476.07C660.617 476.342 660.975 476.478 661.417 476.478C661.978 476.478 662.472 476.333 662.897 476.044L664.097 479.439ZM674.975 465.938C676.694 465.938 678.072 466.448 679.11 467.469C680.165 468.49 680.692 470.03 680.692 472.088V480H675.843V472.88C675.843 470.991 675.086 470.047 673.572 470.047C672.738 470.047 672.066 470.319 671.556 470.863C671.062 471.408 670.816 472.225 670.816 473.313V480H665.966V461.063H670.816V467.444C671.343 466.95 671.964 466.576 672.679 466.321C673.393 466.065 674.159 465.938 674.975 465.938ZM698.284 466.167V480H693.664V478.52C693.154 479.081 692.542 479.507 691.827 479.796C691.112 480.085 690.355 480.23 689.556 480.23C687.769 480.23 686.34 479.702 685.268 478.647C684.213 477.592 683.686 476.01 683.686 473.9V466.167H688.535V473.109C688.535 474.147 688.73 474.904 689.122 475.381C689.513 475.857 690.083 476.095 690.832 476.095C691.597 476.095 692.218 475.832 692.695 475.304C693.188 474.76 693.435 473.934 693.435 472.829V466.167H698.284ZM710.11 465.938C711.369 465.938 712.509 466.227 713.53 466.805C714.568 467.384 715.384 468.218 715.98 469.307C716.592 470.378 716.899 471.629 716.899 473.058C716.899 474.487 716.592 475.746 715.98 476.835C715.384 477.924 714.568 478.766 713.53 479.362C712.509 479.94 711.369 480.23 710.11 480.23C708.289 480.23 706.928 479.694 706.027 478.622V480H701.407V461.063H706.256V467.367C707.192 466.414 708.477 465.938 710.11 465.938ZM709.089 476.376C709.94 476.376 710.637 476.087 711.182 475.508C711.726 474.913 711.999 474.096 711.999 473.058C711.999 472.037 711.726 471.238 711.182 470.659C710.637 470.081 709.94 469.791 709.089 469.791C708.238 469.791 707.541 470.081 706.996 470.659C706.452 471.238 706.18 472.037 706.18 473.058C706.18 474.096 706.452 474.913 706.996 475.508C707.541 476.087 708.238 476.376 709.089 476.376ZM721.119 480.23C720.303 480.23 719.614 479.957 719.052 479.413C718.491 478.869 718.21 478.179 718.21 477.346C718.21 476.495 718.482 475.806 719.027 475.279C719.588 474.751 720.286 474.487 721.119 474.487C721.97 474.487 722.668 474.751 723.212 475.279C723.757 475.806 724.029 476.495 724.029 477.346C724.029 478.179 723.748 478.869 723.187 479.413C722.642 479.957 721.953 480.23 721.119 480.23ZM733.3 480.23C731.769 480.23 730.399 479.923 729.191 479.311C727.983 478.698 727.039 477.848 726.358 476.759C725.695 475.67 725.363 474.436 725.363 473.058C725.363 471.68 725.695 470.455 726.358 469.383C727.039 468.294 727.983 467.452 729.191 466.857C730.399 466.244 731.769 465.938 733.3 465.938C734.865 465.938 736.218 466.278 737.358 466.959C738.498 467.622 739.306 468.549 739.782 469.74L736.031 471.655C735.401 470.412 734.483 469.791 733.275 469.791C732.407 469.791 731.684 470.081 731.105 470.659C730.544 471.238 730.263 472.037 730.263 473.058C730.263 474.096 730.544 474.913 731.105 475.508C731.684 476.087 732.407 476.376 733.275 476.376C734.483 476.376 735.401 475.755 736.031 474.513L739.782 476.427C739.306 477.618 738.498 478.554 737.358 479.234C736.218 479.898 734.865 480.23 733.3 480.23ZM748.4 480.23C746.92 480.23 745.585 479.923 744.394 479.311C743.203 478.698 742.267 477.848 741.586 476.759C740.923 475.67 740.591 474.436 740.591 473.058C740.591 471.697 740.923 470.472 741.586 469.383C742.267 468.294 743.194 467.452 744.368 466.857C745.559 466.244 746.903 465.938 748.4 465.938C749.898 465.938 751.242 466.244 752.433 466.857C753.624 467.452 754.551 468.294 755.215 469.383C755.878 470.455 756.21 471.68 756.21 473.058C756.21 474.436 755.878 475.67 755.215 476.759C754.551 477.848 753.624 478.698 752.433 479.311C751.242 479.923 749.898 480.23 748.4 480.23ZM748.4 476.376C749.251 476.376 749.949 476.087 750.493 475.508C751.038 474.913 751.31 474.096 751.31 473.058C751.31 472.037 751.038 471.238 750.493 470.659C749.949 470.081 749.251 469.791 748.4 469.791C747.55 469.791 746.852 470.081 746.308 470.659C745.763 471.238 745.491 472.037 745.491 473.058C745.491 474.096 745.763 474.913 746.308 475.508C746.852 476.087 747.55 476.376 748.4 476.376ZM776.474 465.938C778.176 465.938 779.528 466.448 780.532 467.469C781.553 468.49 782.064 470.03 782.064 472.088V480H777.214V472.88C777.214 471.91 777.027 471.195 776.653 470.736C776.296 470.276 775.785 470.047 775.122 470.047C774.39 470.047 773.803 470.302 773.361 470.812C772.918 471.323 772.697 472.097 772.697 473.135V480H767.848V472.88C767.848 470.991 767.151 470.047 765.755 470.047C765.007 470.047 764.411 470.302 763.969 470.812C763.527 471.323 763.305 472.097 763.305 473.135V480H758.456V466.167H763.076V467.622C763.586 467.061 764.19 466.644 764.888 466.372C765.602 466.082 766.376 465.938 767.21 465.938C768.18 465.938 769.048 466.116 769.813 466.474C770.579 466.831 771.2 467.375 771.676 468.107C772.221 467.409 772.91 466.874 773.744 466.499C774.577 466.125 775.488 465.938 776.474 465.938ZM791.045 458.511H795.358L786.936 482.552H782.623L791.045 458.511ZM806.894 476.529H799.339L797.936 480H792.78L800.667 462.135H805.643L813.555 480H808.297L806.894 476.529ZM805.414 472.803L803.117 467.086L800.82 472.803H805.414ZM820.041 466.04V469.97H827.927V473.875H820.041V480H814.987V462.135H828.999V466.04H820.041ZM831.362 462.135H836.415V480H831.362V462.135ZM854.353 476.095V480H840.01V462.135H854.021V466.04H845.012V469.051H852.95V472.829H845.012V476.095H854.353ZM857.157 462.135H862.211V480H857.157V462.135ZM870.859 466.04V469.97H878.745V473.875H870.859V480H865.806V462.135H879.817V466.04H870.859Z" fill="white"/>
<path d="M537.47 188.879V254H519.05V228.603H493.932V254H475.512V188.879H493.932V213.346H519.05V188.879H537.47ZM549.625 203.578H567.301V254H549.625V203.578ZM558.463 197.996C555.238 197.996 552.633 197.097 550.648 195.299C548.664 193.5 547.672 191.267 547.672 188.6C547.672 185.934 548.664 183.701 550.648 181.902C552.633 180.104 555.238 179.204 558.463 179.204C561.688 179.204 564.293 180.073 566.277 181.809C568.262 183.484 569.254 185.654 569.254 188.321C569.254 191.112 568.262 193.438 566.277 195.299C564.293 197.097 561.688 197.996 558.463 197.996ZM613.396 233.906C616.435 233.906 618.947 234.867 620.931 236.79C622.916 238.712 623.908 241.224 623.908 244.325C623.908 245.751 623.722 247.178 623.35 248.604C622.978 250.031 622.141 252.17 620.838 255.023L614.978 268.606H603.907L608.279 253.442C606.543 252.636 605.178 251.457 604.186 249.907C603.256 248.294 602.791 246.434 602.791 244.325C602.791 241.224 603.783 238.712 605.768 236.79C607.752 234.867 610.295 233.906 613.396 233.906ZM660.117 188.879H678.537V254H660.117V188.879ZM698.34 184.135C701.379 184.135 703.891 185.096 705.875 187.019C707.86 188.942 708.852 191.453 708.852 194.554C708.852 195.981 708.666 197.407 708.294 198.834C707.922 200.26 707.116 202.4 705.875 205.253L699.921 218.835H688.851L693.223 203.671C691.487 202.865 690.122 201.687 689.13 200.136C688.2 198.524 687.734 196.663 687.734 194.554C687.734 191.453 688.727 188.942 690.711 187.019C692.696 185.096 695.239 184.135 698.34 184.135ZM782.829 202.741C789.031 202.741 793.962 204.601 797.621 208.323C801.342 212.044 803.203 217.657 803.203 225.161V254H785.527V228.045C785.527 224.51 784.845 221.905 783.48 220.23C782.178 218.556 780.317 217.719 777.899 217.719C775.232 217.719 773.092 218.649 771.48 220.509C769.867 222.37 769.061 225.192 769.061 228.975V254H751.385V228.045C751.385 221.161 748.843 217.719 743.757 217.719C741.028 217.719 738.857 218.649 737.245 220.509C735.632 222.37 734.826 225.192 734.826 228.975V254H717.151V203.578H733.989V208.881C735.849 206.834 738.051 205.315 740.594 204.322C743.199 203.268 746.021 202.741 749.06 202.741C752.595 202.741 755.758 203.392 758.549 204.694C761.339 205.997 763.603 207.982 765.34 210.648C767.324 208.106 769.836 206.152 772.875 204.787C775.914 203.423 779.232 202.741 782.829 202.741ZM885.9 241.348H858.363L853.247 254H834.455L863.201 188.879H881.341L910.181 254H891.017L885.9 241.348ZM880.504 227.766L872.132 206.927L863.759 227.766H880.504ZM933.368 205.439H945.369V218.649H933.833V254H916.158V218.649H908.808V205.439H916.158V204.136C916.158 197.996 917.987 193.128 921.646 189.531C925.368 185.934 930.546 184.135 937.182 184.135C939.415 184.135 941.586 184.352 943.694 184.786C945.803 185.22 947.54 185.872 948.904 186.74L944.532 199.206C942.795 198.213 941.028 197.717 939.229 197.717C937.368 197.717 935.911 198.275 934.857 199.392C933.864 200.508 933.368 202.152 933.368 204.322V205.439ZM959.323 203.578H976.999V254H959.323V203.578ZM968.161 197.996C964.936 197.996 962.331 197.097 960.347 195.299C958.362 193.5 957.37 191.267 957.37 188.6C957.37 185.934 958.362 183.701 960.347 181.902C962.331 180.104 964.936 179.204 968.161 179.204C971.386 179.204 973.991 180.073 975.976 181.809C977.96 183.484 978.952 185.654 978.952 188.321C978.952 191.112 977.96 193.438 975.976 195.299C973.991 197.097 971.386 197.996 968.161 197.996ZM1007.68 205.439H1019.68V218.649H1008.15V254H990.472V218.649H983.123V205.439H990.472V204.136C990.472 197.996 992.302 193.128 995.961 189.531C999.682 185.934 1004.86 184.135 1011.5 184.135C1013.73 184.135 1015.9 184.352 1018.01 184.786C1020.12 185.22 1021.85 185.872 1023.22 186.74L1018.85 199.206C1017.11 198.213 1015.34 197.717 1013.54 197.717C1011.68 197.717 1010.23 198.275 1009.17 199.392C1008.18 200.508 1007.68 202.152 1007.68 204.322V205.439Z" fill="white"/>
</g>
</g>
<defs>
<filter id="filter0_d" x="-94" y="-299" width="1626.21" height="1231.31" filterUnits="userSpaceOnUse" color-interpolation-filters="sRGB">
<feFlood flood-opacity="0" result="BackgroundImageFix"/>
<feColorMatrix in="SourceAlpha" type="matrix" values="0 0 0 0 0 0 0 0 0 0 0 0 0 0 0 0 0 0 127 0" result="hardAlpha"/>
<feOffset dx="-50" dy="50"/>
<feGaussianBlur stdDeviation="12.5"/>
<feColorMatrix type="matrix" values="0 0 0 0 0 0 0 0 0 0 0 0 0 0 0 0 0 0 0.15 0"/>
<feBlend mode="normal" in2="BackgroundImageFix" result="effect1_dropShadow"/>
<feBlend mode="normal" in="SourceGraphic" in2="effect1_dropShadow" result="shape"/>
</filter>
<filter id="filter1_d" x="768.403" y="365.303" width="55.5012" height="47.7683" filterUnits="userSpaceOnUse" color-interpolation-filters="sRGB">
<feFlood flood-opacity="0" result="BackgroundImageFix"/>
<feColorMatrix in="SourceAlpha" type="matrix" values="0 0 0 0 0 0 0 0 0 0 0 0 0 0 0 0 0 0 127 0" result="hardAlpha"/>
<feOffset dx="-16.7611" dy="-9.3117"/>
<feGaussianBlur stdDeviation="0.93117"/>
<feColorMatrix type="matrix" values="0 0 0 0 0 0 0 0 0 0 0 0 0 0 0 0 0 0 0.25 0"/>
<feBlend mode="normal" in2="BackgroundImageFix" result="effect1_dropShadow"/>
<feBlend mode="normal" in="SourceGraphic" in2="effect1_dropShadow" result="shape"/>
</filter>
<filter id="filter2_d" x="971.82" y="16.6329" width="41.4978" height="40.5172" filterUnits="userSpaceOnUse" color-interpolation-filters="sRGB">
<feFlood flood-opacity="0" result="BackgroundImageFix"/>
<feColorMatrix in="SourceAlpha" type="matrix" values="0 0 0 0 0 0 0 0 0 0 0 0 0 0 0 0 0 0 127 0" result="hardAlpha"/>
<feOffset dx="-13.4981" dy="-7.49895"/>
<feGaussianBlur stdDeviation="0.749895"/>
<feColorMatrix type="matrix" values="0 0 0 0 0 0 0 0 0 0 0 0 0 0 0 0 0 0 0.25 0"/>
<feBlend mode="normal" in2="BackgroundImageFix" result="effect1_dropShadow"/>
<feBlend mode="normal" in="SourceGraphic" in2="effect1_dropShadow" result="shape"/>
</filter>
<filter id="filter3_d" x="1114.23" y="92.5002" width="71.0073" height="63.9355" filterUnits="userSpaceOnUse" color-interpolation-filters="sRGB">
<feFlood flood-opacity="0" result="BackgroundImageFix"/>
<feColorMatrix in="SourceAlpha" type="matrix" values="0 0 0 0 0 0 0 0 0 0 0 0 0 0 0 0 0 0 127 0" result="hardAlpha"/>
<feOffset dx="-21.8107" dy="-12.1171"/>
<feGaussianBlur stdDeviation="1.21171"/>
<feColorMatrix type="matrix" values="0 0 0 0 0 0 0 0 0 0 0 0 0 0 0 0 0 0 0.25 0"/>
<feBlend mode="normal" in2="BackgroundImageFix" result="effect1_dropShadow"/>
<feBlend mode="normal" in="SourceGraphic" in2="effect1_dropShadow" result="shape"/>
</filter>
<filter id="filter4_d" x="411.098" y="419.725" width="46.9685" height="40.8916" filterUnits="userSpaceOnUse" color-interpolation-filters="sRGB">
<feFlood flood-opacity="0" result="BackgroundImageFix"/>
<feColorMatrix in="SourceAlpha" type="matrix" values="0 0 0 0 0 0 0 0 0 0 0 0 0 0 0 0 0 0 127 0" result="hardAlpha"/>
<feOffset dx="-14.2326" dy="-7.90698"/>
<feGaussianBlur stdDeviation="0.790698"/>
<feColorMatrix type="matrix" values="0 0 0 0 0 0 0 0 0 0 0 0 0 0 0 0 0 0 0.25 0"/>
<feBlend mode="normal" in2="BackgroundImageFix" result="effect1_dropShadow"/>
<feBlend mode="normal" in="SourceGraphic" in2="effect1_dropShadow" result="shape"/>
</filter>
<filter id="filter5_d" x="1399.69" y="485.533" width="48.236" height="43.5715" filterUnits="userSpaceOnUse" color-interpolation-filters="sRGB">
<feFlood flood-opacity="0" result="BackgroundImageFix"/>
<feColorMatrix in="SourceAlpha" type="matrix" values="0 0 0 0 0 0 0 0 0 0 0 0 0 0 0 0 0 0 127 0" result="hardAlpha"/>
<feOffset dx="-14.841" dy="-8.24499"/>
<feGaussianBlur stdDeviation="0.824498"/>
<feColorMatrix type="matrix" values="0 0 0 0 0 0 0 0 0 0 0 0 0 0 0 0 0 0 0.25 0"/>
<feBlend mode="normal" in2="BackgroundImageFix" result="effect1_dropShadow"/>
<feBlend mode="normal" in="SourceGraphic" in2="effect1_dropShadow" result="shape"/>
</filter>
<filter id="filter6_d" x="395.126" y="250.567" width="31.4235" height="28.1446" filterUnits="userSpaceOnUse" color-interpolation-filters="sRGB">
<feFlood flood-opacity="0" result="BackgroundImageFix"/>
<feColorMatrix in="SourceAlpha" type="matrix" values="0 0 0 0 0 0 0 0 0 0 0 0 0 0 0 0 0 0 127 0" result="hardAlpha"/>
<feOffset dx="-9.62791" dy="-5.34884"/>
<feGaussianBlur stdDeviation="0.534884"/>
<feColorMatrix type="matrix" values="0 0 0 0 0 0 0 0 0 0 0 0 0 0 0 0 0 0 0.25 0"/>
<feBlend mode="normal" in2="BackgroundImageFix" result="effect1_dropShadow"/>
<feBlend mode="normal" in="SourceGraphic" in2="effect1_dropShadow" result="shape"/>
</filter>
<filter id="filter7_d" x="286.525" y="138.934" width="57.4422" height="56.3935" filterUnits="userSpaceOnUse" color-interpolation-filters="sRGB">
<feFlood flood-opacity="0" result="BackgroundImageFix"/>
<feColorMatrix in="SourceAlpha" type="matrix" values="0 0 0 0 0 0 0 0 0 0 0 0 0 0 0 0 0 0 127 0" result="hardAlpha"/>
<feOffset dx="-18.7823" dy="-10.4346"/>
<feGaussianBlur stdDeviation="1.04346"/>
<feColorMatrix type="matrix" values="0 0 0 0 0 0 0 0 0 0 0 0 0 0 0 0 0 0 0.25 0"/>
<feBlend mode="normal" in2="BackgroundImageFix" result="effect1_dropShadow"/>
<feBlend mode="normal" in="SourceGraphic" in2="effect1_dropShadow" result="shape"/>
</filter>
<filter id="filter8_d" x="820.162" y="99.5029" width="55.4999" height="47.3233" filterUnits="userSpaceOnUse" color-interpolation-filters="sRGB">
<feFlood flood-opacity="0" result="BackgroundImageFix"/>
<feColorMatrix in="SourceAlpha" type="matrix" values="0 0 0 0 0 0 0 0 0 0 0 0 0 0 0 0 0 0 127 0" result="hardAlpha"/>
<feOffset dx="-16.722" dy="-9.28999"/>
<feGaussianBlur stdDeviation="0.928999"/>
<feColorMatrix type="matrix" values="0 0 0 0 0 0 0 0 0 0 0 0 0 0 0 0 0 0 0.25 0"/>
<feBlend mode="normal" in2="BackgroundImageFix" result="effect1_dropShadow"/>
<feBlend mode="normal" in="SourceGraphic" in2="effect1_dropShadow" result="shape"/>
</filter>
<filter id="filter9_d" x="1281.31" y="399.333" width="64.2831" height="53.5338" filterUnits="userSpaceOnUse" color-interpolation-filters="sRGB">
<feFlood flood-opacity="0" result="BackgroundImageFix"/>
<feColorMatrix in="SourceAlpha" type="matrix" values="0 0 0 0 0 0 0 0 0 0 0 0 0 0 0 0 0 0 127 0" result="hardAlpha"/>
<feOffset dx="-19.2878" dy="-10.7155"/>
<feGaussianBlur stdDeviation="1.07155"/>
<feColorMatrix type="matrix" values="0 0 0 0 0 0 0 0 0 0 0 0 0 0 0 0 0 0 0.25 0"/>
<feBlend mode="normal" in2="BackgroundImageFix" result="effect1_dropShadow"/>
<feBlend mode="normal" in="SourceGraphic" in2="effect1_dropShadow" result="shape"/>
</filter>
<filter id="filter10_d" x="353.393" y="5.83025" width="43.7558" height="36.5457" filterUnits="userSpaceOnUse" color-interpolation-filters="sRGB">
<feFlood flood-opacity="0" result="BackgroundImageFix"/>
<feColorMatrix in="SourceAlpha" type="matrix" values="0 0 0 0 0 0 0 0 0 0 0 0 0 0 0 0 0 0 127 0" result="hardAlpha"/>
<feOffset dx="-18.7154" dy="-10.3974"/>
<feGaussianBlur stdDeviation="1.03974"/>
<feColorMatrix type="matrix" values="0 0 0 0 0 0 0 0 0 0 0 0 0 0 0 0 0 0 0.25 0"/>
<feBlend mode="normal" in2="BackgroundImageFix" result="effect1_dropShadow"/>
<feBlend mode="normal" in="SourceGraphic" in2="effect1_dropShadow" result="shape"/>
</filter>
<filter id="filter11_d" x="566.074" y="101.937" width="31.4387" height="26.2583" filterUnits="userSpaceOnUse" color-interpolation-filters="sRGB">
<feFlood flood-opacity="0" result="BackgroundImageFix"/>
<feColorMatrix in="SourceAlpha" type="matrix" values="0 0 0 0 0 0 0 0 0 0 0 0 0 0 0 0 0 0 127 0" result="hardAlpha"/>
<feOffset dx="-13.4471" dy="-7.47061"/>
<feGaussianBlur stdDeviation="0.747061"/>
<feColorMatrix type="matrix" values="0 0 0 0 0 0 0 0 0 0 0 0 0 0 0 0 0 0 0.25 0"/>
<feBlend mode="normal" in2="BackgroundImageFix" result="effect1_dropShadow"/>
<feBlend mode="normal" in="SourceGraphic" in2="effect1_dropShadow" result="shape"/>
</filter>
<filter id="filter12_d" x="1442.68" y="76.6111" width="41.0569" height="34.2915" filterUnits="userSpaceOnUse" color-interpolation-filters="sRGB">
<feFlood flood-opacity="0" result="BackgroundImageFix"/>
<feColorMatrix in="SourceAlpha" type="matrix" values="0 0 0 0 0 0 0 0 0 0 0 0 0 0 0 0 0 0 127 0" result="hardAlpha"/>
<feOffset dx="-17.561" dy="-9.7561"/>
<feGaussianBlur stdDeviation="0.97561"/>
<feColorMatrix type="matrix" values="0 0 0 0 0 0 0 0 0 0 0 0 0 0 0 0 0 0 0.25 0"/>
<feBlend mode="normal" in2="BackgroundImageFix" result="effect1_dropShadow"/>
<feBlend mode="normal" in="SourceGraphic" in2="effect1_dropShadow" result="shape"/>
</filter>
<filter id="filter13_d" x="142.828" y="23.1191" width="26.6869" height="22.2895" filterUnits="userSpaceOnUse" color-interpolation-filters="sRGB">
<feFlood flood-opacity="0" result="BackgroundImageFix"/>
<feColorMatrix in="SourceAlpha" type="matrix" values="0 0 0 0 0 0 0 0 0 0 0 0 0 0 0 0 0 0 127 0" result="hardAlpha"/>
<feOffset dx="-11.4146" dy="-6.34146"/>
<feGaussianBlur stdDeviation="0.634146"/>
<feColorMatrix type="matrix" values="0 0 0 0 0 0 0 0 0 0 0 0 0 0 0 0 0 0 0.25 0"/>
<feBlend mode="normal" in2="BackgroundImageFix" result="effect1_dropShadow"/>
<feBlend mode="normal" in="SourceGraphic" in2="effect1_dropShadow" result="shape"/>
</filter>
<filter id="filter14_d" x="1129.98" y="486.011" width="34.8981" height="29.1478" filterUnits="userSpaceOnUse" color-interpolation-filters="sRGB">
<feFlood flood-opacity="0" result="BackgroundImageFix"/>
<feColorMatrix in="SourceAlpha" type="matrix" values="0 0 0 0 0 0 0 0 0 0 0 0 0 0 0 0 0 0 127 0" result="hardAlpha"/>
<feOffset dx="-14.9268" dy="-8.29268"/>
<feGaussianBlur stdDeviation="0.829268"/>
<feColorMatrix type="matrix" values="0 0 0 0 0 0 0 0 0 0 0 0 0 0 0 0 0 0 0.25 0"/>
<feBlend mode="normal" in2="BackgroundImageFix" result="effect1_dropShadow"/>
<feBlend mode="normal" in="SourceGraphic" in2="effect1_dropShadow" result="shape"/>
</filter>
<filter id="filter15_d" x="949.468" y="464.681" width="22.5812" height="18.8603" filterUnits="userSpaceOnUse" color-interpolation-filters="sRGB">
<feFlood flood-opacity="0" result="BackgroundImageFix"/>
<feColorMatrix in="SourceAlpha" type="matrix" values="0 0 0 0 0 0 0 0 0 0 0 0 0 0 0 0 0 0 127 0" result="hardAlpha"/>
<feOffset dx="-9.65854" dy="-5.36585"/>
<feGaussianBlur stdDeviation="0.536585"/>
<feColorMatrix type="matrix" values="0 0 0 0 0 0 0 0 0 0 0 0 0 0 0 0 0 0 0.25 0"/>
<feBlend mode="normal" in2="BackgroundImageFix" result="effect1_dropShadow"/>
<feBlend mode="normal" in="SourceGraphic" in2="effect1_dropShadow" result="shape"/>
</filter>
<filter id="filter16_d" x="1300.64" y="201.576" width="22.5812" height="18.8603" filterUnits="userSpaceOnUse" color-interpolation-filters="sRGB">
<feFlood flood-opacity="0" result="BackgroundImageFix"/>
<feColorMatrix in="SourceAlpha" type="matrix" values="0 0 0 0 0 0 0 0 0 0 0 0 0 0 0 0 0 0 127 0" result="hardAlpha"/>
<feOffset dx="-9.65854" dy="-5.36585"/>
<feGaussianBlur stdDeviation="0.536585"/>
<feColorMatrix type="matrix" values="0 0 0 0 0 0 0 0 0 0 0 0 0 0 0 0 0 0 0.25 0"/>
<feBlend mode="normal" in2="BackgroundImageFix" result="effect1_dropShadow"/>
<feBlend mode="normal" in="SourceGraphic" in2="effect1_dropShadow" result="shape"/>
</filter>
<filter id="filter17_d" x="328.985" y="372.086" width="22.5812" height="18.8603" filterUnits="userSpaceOnUse" color-interpolation-filters="sRGB">
<feFlood flood-opacity="0" result="BackgroundImageFix"/>
<feColorMatrix in="SourceAlpha" type="matrix" values="0 0 0 0 0 0 0 0 0 0 0 0 0 0 0 0 0 0 127 0" result="hardAlpha"/>
<feOffset dx="-9.65854" dy="-5.36585"/>
<feGaussianBlur stdDeviation="0.536585"/>
<feColorMatrix type="matrix" values="0 0 0 0 0 0 0 0 0 0 0 0 0 0 0 0 0 0 0.25 0"/>
<feBlend mode="normal" in2="BackgroundImageFix" result="effect1_dropShadow"/>
<feBlend mode="normal" in="SourceGraphic" in2="effect1_dropShadow" result="shape"/>
</filter>
<filter id="filter18_d" x="1154.24" y="328.591" width="24.6341" height="20.5749" filterUnits="userSpaceOnUse" color-interpolation-filters="sRGB">
<feFlood flood-opacity="0" result="BackgroundImageFix"/>
<feColorMatrix in="SourceAlpha" type="matrix" values="0 0 0 0 0 0 0 0 0 0 0 0 0 0 0 0 0 0 127 0" result="hardAlpha"/>
<feOffset dx="-10.5366" dy="-5.85366"/>
<feGaussianBlur stdDeviation="0.585366"/>
<feColorMatrix type="matrix" values="0 0 0 0 0 0 0 0 0 0 0 0 0 0 0 0 0 0 0.25 0"/>
<feBlend mode="normal" in2="BackgroundImageFix" result="effect1_dropShadow"/>
<feBlend mode="normal" in="SourceGraphic" in2="effect1_dropShadow" result="shape"/>
</filter>
<filter id="filter19_d" x="58.4383" y="180.498" width="41.0568" height="34.2915" filterUnits="userSpaceOnUse" color-interpolation-filters="sRGB">
<feFlood flood-opacity="0" result="BackgroundImageFix"/>
<feColorMatrix in="SourceAlpha" type="matrix" values="0 0 0 0 0 0 0 0 0 0 0 0 0 0 0 0 0 0 127 0" result="hardAlpha"/>
<feOffset dx="-17.561" dy="-9.7561"/>
<feGaussianBlur stdDeviation="0.97561"/>
<feColorMatrix type="matrix" values="0 0 0 0 0 0 0 0 0 0 0 0 0 0 0 0 0 0 0.25 0"/>
<feBlend mode="normal" in2="BackgroundImageFix" result="effect1_dropShadow"/>
<feBlend mode="normal" in="SourceGraphic" in2="effect1_dropShadow" result="shape"/>
</filter>
<filter id="filter20_d" x="1313.09" y="-87.5842" width="67.6938" height="89.3195" filterUnits="userSpaceOnUse" color-interpolation-filters="sRGB">
<feFlood flood-opacity="0" result="BackgroundImageFix"/>
<feColorMatrix in="SourceAlpha" type="matrix" values="0 0 0 0 0 0 0 0 0 0 0 0 0 0 0 0 0 0 127 0" result="hardAlpha"/>
<feOffset dx="-26.7202" dy="-14.8446"/>
<feGaussianBlur stdDeviation="1.48446"/>
<feColorMatrix type="matrix" values="0 0 0 0 0 0 0 0 0 0 0 0 0 0 0 0 0 0 0.25 0"/>
<feBlend mode="normal" in2="BackgroundImageFix" result="effect1_dropShadow"/>
<feBlend mode="normal" in="SourceGraphic" in2="effect1_dropShadow" result="shape"/>
</filter>
<filter id="filter21_d" x="109.252" y="355.065" width="73.5183" height="83.0513" filterUnits="userSpaceOnUse" color-interpolation-filters="sRGB">
<feFlood flood-opacity="0" result="BackgroundImageFix"/>
<feColorMatrix in="SourceAlpha" type="matrix" values="0 0 0 0 0 0 0 0 0 0 0 0 0 0 0 0 0 0 127 0" result="hardAlpha"/>
<feOffset dx="-26.7202" dy="-14.8446"/>
<feGaussianBlur stdDeviation="1.48446"/>
<feColorMatrix type="matrix" values="0 0 0 0 0 0 0 0 0 0 0 0 0 0 0 0 0 0 0.25 0"/>
<feBlend mode="normal" in2="BackgroundImageFix" result="effect1_dropShadow"/>
<feBlend mode="normal" in="SourceGraphic" in2="effect1_dropShadow" result="shape"/>
</filter>
<filter id="filter22_d" x="932.426" y="247.791" width="80.5364" height="76.1168" filterUnits="userSpaceOnUse" color-interpolation-filters="sRGB">
<feFlood flood-opacity="0" result="BackgroundImageFix"/>
<feColorMatrix in="SourceAlpha" type="matrix" values="0 0 0 0 0 0 0 0 0 0 0 0 0 0 0 0 0 0 127 0" result="hardAlpha"/>
<feOffset dx="-26.7202" dy="-14.8446"/>
<feGaussianBlur stdDeviation="1.48446"/>
<feColorMatrix type="matrix" values="0 0 0 0 0 0 0 0 0 0 0 0 0 0 0 0 0 0 0.25 0"/>
<feBlend mode="normal" in2="BackgroundImageFix" result="effect1_dropShadow"/>
<feBlend mode="normal" in="SourceGraphic" in2="effect1_dropShadow" result="shape"/>
</filter>
<filter id="filter23_d" x="1395.87" y="271.484" width="92.4915" height="62.9514" filterUnits="userSpaceOnUse" color-interpolation-filters="sRGB">
<feFlood flood-opacity="0" result="BackgroundImageFix"/>
<feColorMatrix in="SourceAlpha" type="matrix" values="0 0 0 0 0 0 0 0 0 0 0 0 0 0 0 0 0 0 127 0" result="hardAlpha"/>
<feOffset dx="-26.7202" dy="-14.8446"/>
<feGaussianBlur stdDeviation="1.48446"/>
<feColorMatrix type="matrix" values="0 0 0 0 0 0 0 0 0 0 0 0 0 0 0 0 0 0 0.25 0"/>
<feBlend mode="normal" in2="BackgroundImageFix" result="effect1_dropShadow"/>
<feBlend mode="normal" in="SourceGraphic" in2="effect1_dropShadow" result="shape"/>
</filter>
<clipPath id="clip0">
<rect width="1500" height="500" fill="white"/>
</clipPath>
<clipPath id="clip1">
<rect width="1632" height="1241" fill="white" transform="translate(-100 -299)"/>
</clipPath>
</defs>
</svg>
